<?xml version="1.0" encoding="UTF-8"?>
<svg id="Layer_1" data-name="Layer 1" xmlns="http://www.w3.org/2000/svg" viewBox="0 0 60 60">
  <defs>
    <style>
      .cls-1 {
        fill: #0a0a0c;
      }

      .cls-1, .cls-2 {
        stroke-width: 0px;
      }

      .cls-2 {
        fill: #f8fbff;
      }
    </style>
  </defs>
  <rect class="cls-1" x="0" y="0" width="60" height="60" rx="11.07" ry="11.07"/>
  <g>
    <polygon class="cls-2" points="41.91 33.97 33.97 33.97 33.97 26.03 41.91 33.97"/>
    <rect class="cls-2" x="33.97" y="33.97" width="7.94" height="7.94"/>
    <rect class="cls-2" x="18.09" y="18.09" width="7.94" height="7.94"/>
    <rect class="cls-2" x="26.03" y="26.03" width="7.94" height="7.94"/>
    <polygon class="cls-2" points="26.03 26.03 26.03 33.97 18.09 26.03 26.03 26.03"/>
    <rect class="cls-2" x="26.03" y="41.91" width="7.94" height="7.94"/>
    <rect class="cls-2" x="18.09" y="33.97" width="7.94" height="7.94"/>
    <polygon class="cls-2" points="26.03 41.91 26.03 49.86 18.09 41.91 26.03 41.91"/>
    <rect class="cls-2" x="26.03" y="10.14" width="7.94" height="7.94"/>
    <rect class="cls-2" x="33.97" y="18.09" width="7.94" height="7.94"/>
    <polygon class="cls-2" points="41.91 18.09 33.97 18.09 33.97 10.14 41.91 18.09"/>
  </g>
</svg>